C:\GBW_MyPrograms\KinderuniversiteitApp\Resultaten\New_group\Reus_v2.mot
version=1
nRows=10
nColumns=31
inDegrees=yes
endheader
                time	         pelvis_tilt	           pelvis_tx	           pelvis_ty	       hip_flexion_r	        knee_angle_r	       ankle_angle_r	       hip_flexion_l	        knee_angle_l	       ankle_angle_l	    lumbar_extension	          arm_flex_r	          arm_flex_l	hamstrings_r/activation	bifemsh_r/activation	glut_max_r/activation	iliopsoas_r/activation	rect_fem_r/activation	  vasti_r/activation	gastroc_r/activation	 soleus_r/activation	tib_ant_r/activation	hamstrings_l/activation	bifemsh_l/activation	glut_max_l/activation	iliopsoas_l/activation	rect_fem_l/activation	  vasti_l/activation	gastroc_l/activation	 soleus_l/activation	tib_ant_l/activation	
          0.00000000	          1.08021119	          0.00000000	          5.62492805	         10.88727795	        -25.47563878	         11.84611209	          4.66426283	        -20.58496273	         12.52886173	         -5.39846887	         -3.84134502	         -3.84115084	          0.23349322	          0.80939060	          0.15023063	          0.88987297	          0.65118220	          0.10551224	          0.21318494	          0.09680736	          0.79021759	          0.15411380	          0.33535034	          0.80607497	          0.31437587	          0.85210185	          0.90074867	          0.53191498	          0.88315787	          0.41446597	
          0.01787281	          0.96809470	          0.04133427	          5.61549343	         12.71387903	        -28.80575089	         10.30777313	          4.76944123	        -21.48312557	         13.29014999	         -5.41089685	         -3.68863966	         -3.68898261	          0.18101792	          0.69809426	          0.13416486	          0.86999995	          0.78373166	          0.29858526	          0.19928948	          0.08967436	          0.79656199	          0.13514286	          0.34452606	          0.76712572	          0.35938259	          0.87007854	          0.92383582	          0.53349095	          0.86583510	          0.43585261	
          0.03574562	          0.79685470	          0.08297859	          5.60620678	         14.57896886	        -32.33927940	         11.10187788	          4.91637724	        -22.33570845	         13.97395014	         -5.34882245	         -3.55913763	         -3.55880756	          0.14488601	          0.64254603	          0.13409046	          0.84325528	          0.85035503	          0.46932511	          0.19219680	          0.08941103	          0.81077168	          0.12934577	          0.35666525	          0.73888049	          0.37608441	          0.86316100	          0.91889818	          0.53790905	          0.85803102	          0.45118788	
          0.05361843	          0.51993991	          0.12547165	          5.59656637	         16.36350903	        -35.26894955	         10.88242007	          5.09205262	        -23.04677766	         14.60675638	         -5.14679010	         -3.47477297	         -3.47502526	          0.12761610	          0.61426853	          0.16363077	          0.81342883	          0.85096620	          0.57897251	          0.18691735	          0.09175742	          0.83371063	          0.13251219	          0.36549648	          0.76084075	          0.37143393	          0.84802734	          0.91860162	          0.54025765	          0.85337823	          0.46182584	
          0.07149124	          0.16431754	          0.16908370	          5.58681083	         17.98749930	        -37.47956413	         10.14501934	          5.23791738	        -23.57047514	         15.19961530	         -4.83047062	         -3.43726359	         -3.43697230	          0.12476825	          0.59976538	          0.20113190	          0.79717447	          0.84571675	          0.63358648	          0.18111488	          0.09528133	          0.84001595	          0.13206446	          0.37279266	          0.76301005	          0.37489928	          0.84702809	          0.92376173	          0.53790079	          0.84623051	          0.47243630	
          0.08936404	         -0.22659967	          0.21397482	          5.57730549	         19.38382695	        -38.95116788	          9.40603605	          5.28849439	        -23.87694312	         15.76106475	         -4.44705166	         -3.43991109	         -3.43998585	          0.12627048	          0.59173160	          0.23604657	          0.78917864	          0.83158667	          0.67377581	          0.16664526	          0.10039449	          0.83456208	          0.12562652	          0.37492217	          0.75418068	          0.38518107	          0.85722482	          0.93612646	          0.53150445	          0.83852094	          0.48540350	
          0.10723685	         -0.63490133	          0.26020122	          5.56819044	         20.53169902	        -39.70196860	          8.86542360	          5.21909612	        -23.95754941	         16.29446221	         -4.01619663	         -3.48143471	         -3.48127956	          0.12457112	          0.58398542	          0.27634170	          0.77992927	          0.80729826	          0.75399871	          0.14362559	          0.09793036	          0.84245411	          0.11431471	          0.36932349	          0.74646821	          0.39582905	          0.87088508	          0.94542614	          0.53195664	          0.83976496	          0.50066790	
          0.12510966	         -1.04889848	          0.30782134	          5.55960118	         21.41035431	        -39.72949216	          8.59393787	          5.02013820	        -23.81729199	         16.79057625	         -3.55034480	         -3.56083180	         -3.56073128	          0.12154027	          0.57414760	          0.32342106	          0.76144890	          0.78794967	          0.77919681	          0.11942447	          0.08659827	          0.87443402	          0.10388256	          0.35784371	          0.73605759	          0.40587167	          0.88257095	          0.94585515	          0.55773437	          0.86374883	          0.51454914	
          0.14298247	         -1.45776655	          0.35687897	          5.55168480	         22.00085381	        -39.04426297	          8.70580684	          4.69354951	        -23.47833842	         17.22900287	         -3.06125636	         -3.67665208	         -3.67661132	          0.11867651	          0.55535848	          0.38700237	          0.73075103	          0.77534848	          0.72915859	          0.09699364	          0.07177011	          0.91236251	          0.09738064	          0.34609591	          0.72135132	          0.41930043	          0.88881403	          0.93736665	          0.61076251	          0.90804919	          0.51967974	
          0.16085528	         -1.84962734	          0.40738103	          5.54456486	         22.29717996	        -37.71400691	          9.27740700	          4.24645945	        -22.97300721	         17.58862462	         -2.56268374	         -3.82557167	         -3.82539450	          0.11566278	          0.52384275	          0.46455225	          0.69054981	          0.76718040	          0.67472045	          0.07832257	          0.06007181	          0.93836355	          0.09586151	          0.34154524	          0.69585259	          0.44706381	          0.88738985	          0.91955076	          0.67270924	          0.94677162	          0.50695793	
